<?xml version="1.0" encoding="iso-8859-1"?>
<!-- Uploaded to: SVG Repo, www.svgrepo.com, Generator: SVG Repo Mixer Tools -->
<svg version="1.1" id="Layer_1" xmlns="http://www.w3.org/2000/svg" xmlns:xlink="http://www.w3.org/1999/xlink" 
	 viewBox="0 0 512 512" xml:space="preserve">
<path style="fill:#6B6B6B;" d="M0,355.2v-324c0.104-5.704,4.696-10.296,10.4-10.4h491.2c5.704,0.104,10.296,4.696,10.4,10.4v324H0z"
	/>
<path d="M512,355.2v41.6c-0.104,5.704-4.696,10.296-10.4,10.4H10.4c-5.704-0.104-10.296-4.696-10.4-10.4v-41.6H512z"/>
<rect x="146.4" y="480.8" style="fill:#333333;" width="219.2" height="10.4"/>
<polygon style="fill:#6B6B6B;" points="328.8,480.8 183.2,480.8 193.6,407.2 318.4,407.2 "/>
<rect x="20.8" y="41.6" width="470.4" height="292.8"/>
<polygon style="fill:#333333;" points="318.4,407.2 193.6,407.2 187.792,448.28 320.272,420.424 "/>
<rect x="108.992" y="164.072" style="fill:#E21B1B;" width="18.688" height="51.104"/>
<g>
	<rect x="77.856" y="184.96" style="fill:#999999;" width="18.688" height="30.208"/>
	<rect x="140.136" y="135.672" style="fill:#999999;" width="18.688" height="79.504"/>
</g>
<rect x="171.28" y="84.568" style="fill:#E21B1B;" width="18.688" height="130.608"/>
<rect x="202.416" y="110.92" style="fill:#999999;" width="18.688" height="104.24"/>
<g>
	<rect x="233.6" y="152.88" style="fill:#E21B1B;" width="18.688" height="62.464"/>
	<path style="fill:#E21B1B;" d="M356.984,86.464c-38.328,0.008-69.392,31.088-69.384,69.416s31.088,69.392,69.416,69.384
		c38.304-0.008,69.36-31.048,69.384-69.352h-69.416V86.464z"/>
</g>
<path style="fill:#FFFFFF;" d="M417.904,94.992L368.8,144.088h69.4V144C438.208,125.616,430.904,107.984,417.904,94.992z"/>
<path style="fill:#DBDBDB;" d="M368.8,74.648v69.456l49.096-49.096C404.896,81.952,387.224,74.616,368.8,74.648z"/>
<g>
	<rect x="99" y="254.984" style="fill:#999999;" width="314" height="8"/>
	<rect x="156.128" y="294.888" style="fill:#999999;" width="199.744" height="8"/>
</g>
</svg>